<svg width="275" height="90" viewBox="0 0 275 90" fill="000000" xmlns="http://www.w3.org/2000/svg">
    <path d="M38.2633 68.9C37.9133 69.6333 37.4716 70.25 36.9383 70.75C36.4216 71.25 35.8383 71.6333 35.1883 71.9C34.5549 72.15 33.8883 72.275 33.1883 72.275C32.4883 72.275 31.8299 72.1 31.2133 71.75C30.5966 71.4 30.0966 70.8417 29.7133 70.075C29.3299 69.2917 29.1383 68.2667 29.1383 67C29.1383 65.7167 29.3383 64.525 29.7383 63.425C30.1549 62.3083 30.7299 61.3333 31.4633 60.5C32.2133 59.65 33.0883 58.9917 34.0883 58.525C35.1049 58.0583 36.2133 57.825 37.4133 57.825C37.9133 57.825 38.4299 57.8917 38.9633 58.025C39.4966 58.1417 39.9716 58.3 40.3883 58.5C39.2883 58.8 38.3466 59.2667 37.5633 59.9C36.7966 60.5167 36.1716 61.2417 35.6883 62.075C35.2216 62.8917 34.8799 63.7417 34.6633 64.625C34.4466 65.4917 34.3383 66.3167 34.3383 67.1C34.3383 67.6167 34.3799 68.0917 34.4633 68.525C34.5633 68.9417 34.7049 69.2833 34.8883 69.55C35.0883 69.8 35.3466 69.925 35.6633 69.925C36.1466 69.925 36.5716 69.6833 36.9383 69.2C37.3216 68.7167 37.6549 68.0667 37.9383 67.25C38.2216 66.4167 38.4633 65.4833 38.6633 64.45C38.8633 63.4 39.0216 62.3167 39.1383 61.2C39.2716 60.0667 39.3716 58.9583 39.4383 57.875C39.5216 56.775 39.5716 55.7667 39.5883 54.85C39.6216 53.9167 39.6383 53.1417 39.6383 52.525C39.6383 51.6417 39.6049 50.8333 39.5383 50.1C39.4883 49.35 39.3716 48.675 39.1883 48.075C40.4383 48.075 41.4049 48.325 42.0883 48.825C42.7716 49.3083 43.2466 49.9583 43.5133 50.775C43.7966 51.5917 43.9383 52.475 43.9383 53.425C43.9383 54.3417 43.8549 55.3917 43.6883 56.575C43.5216 57.7583 43.3216 59.0333 43.0883 60.4C42.8716 61.75 42.6799 63.15 42.5133 64.6C42.3466 66.0333 42.2633 67.4667 42.2633 68.9C42.2633 70.1167 42.3383 71.3 42.4883 72.45C41.4383 72.45 40.6216 72.275 40.0383 71.925C39.4549 71.5583 39.0383 71.1083 38.7883 70.575C38.5549 70.025 38.4216 69.475 38.3883 68.925L38.2633 68.9ZM52.302 72.375C51.102 72.375 50.0603 72.125 49.177 71.625C48.2936 71.125 47.602 70.4167 47.102 69.5C46.6186 68.5833 46.377 67.5083 46.377 66.275C46.377 65.0417 46.577 63.9 46.977 62.85C47.3936 61.7833 47.9686 60.8583 48.702 60.075C49.452 59.2917 50.3186 58.6833 51.302 58.25C52.302 57.8 53.3853 57.575 54.552 57.575C55.952 57.575 57.052 57.9 57.852 58.55C58.652 59.1833 59.052 60.0667 59.052 61.2C59.052 62.1167 58.8103 62.925 58.327 63.625C57.8603 64.325 57.202 64.875 56.352 65.275C55.5186 65.6583 54.5353 65.85 53.402 65.85C53.0186 65.85 52.652 65.825 52.302 65.775C51.9686 65.7083 51.6353 65.6167 51.302 65.5L51.377 64.525H52.027C52.4936 64.525 52.8936 64.3667 53.227 64.05C53.5603 63.7333 53.8186 63.2917 54.002 62.725C54.1853 62.1417 54.277 61.4667 54.277 60.7C54.277 60.2333 54.202 59.8583 54.052 59.575C53.902 59.275 53.702 59.125 53.452 59.125C53.1353 59.125 52.852 59.3667 52.602 59.85C52.3686 60.3333 52.1686 60.95 52.002 61.7C51.8353 62.4333 51.7103 63.2 51.627 64C51.5603 64.7833 51.527 65.4833 51.527 66.1C51.527 67.7833 51.7186 68.9417 52.102 69.575C52.502 70.2083 53.102 70.525 53.902 70.525C55.1686 70.525 56.277 69.7083 57.227 68.075C57.827 68.225 58.127 68.5333 58.127 69C57.4436 70.0833 56.602 70.9167 55.602 71.5C54.602 72.0833 53.502 72.375 52.302 72.375ZM73.7758 62.375C74.1424 61.2917 74.5758 60.4 75.0758 59.7C75.5758 58.9833 76.1508 58.45 76.8008 58.1C77.4508 57.75 78.1841 57.575 79.0008 57.575C80.0341 57.575 80.7924 57.8583 81.2758 58.425C81.7758 58.9917 82.0258 59.8667 82.0258 61.05C82.0258 61.85 81.9424 62.75 81.7758 63.75C81.6091 64.75 81.4424 65.75 81.2758 66.75C81.1091 67.7333 81.0258 68.6417 81.0258 69.475C81.0258 70.1917 81.1258 70.7417 81.3258 71.125C81.5258 71.4917 81.9008 71.8167 82.4508 72.1C82.1841 72.1667 81.9091 72.225 81.6258 72.275C81.3591 72.3417 80.9341 72.375 80.3508 72.375C78.8674 72.375 77.7924 72.1417 77.1258 71.675C76.4758 71.2083 76.1508 70.45 76.1508 69.4C76.1508 68.9167 76.2008 68.3667 76.3008 67.75C76.4008 67.1333 76.5174 66.4917 76.6508 65.825C76.7841 65.1417 76.9008 64.475 77.0008 63.825C77.1008 63.1583 77.1508 62.55 77.1508 62C77.1508 60.7833 76.8841 60.175 76.3508 60.175C75.9674 60.175 75.5924 60.4417 75.2258 60.975C74.8758 61.4917 74.5591 62.2083 74.2758 63.125C73.9924 64.025 73.7674 65.05 73.6008 66.2C73.4508 67.35 73.3758 68.55 73.3758 69.8C73.3758 70.2167 73.3841 70.5917 73.4008 70.925C73.4341 71.2583 73.4758 71.5333 73.5258 71.75C73.0758 71.8667 72.6674 71.95 72.3008 72C71.9508 72.0333 71.6174 72.05 71.3008 72.05C70.2674 72.05 69.5091 71.8833 69.0258 71.55C68.5424 71.2 68.3008 70.6583 68.3008 69.925C68.3008 69.5417 68.3508 69.0167 68.4508 68.35C68.5674 67.6667 68.6924 66.9 68.8258 66.05C68.9591 65.2 69.0758 64.3167 69.1758 63.4C69.2924 62.4833 69.3508 61.5917 69.3508 60.725C69.3508 60.075 69.3091 59.4333 69.2258 58.8C69.1591 58.1667 69.0591 57.5833 68.9258 57.05C70.4424 57.05 71.6174 57.4333 72.4508 58.2C73.2841 58.95 73.7008 60.0083 73.7008 61.375C73.7008 61.525 73.7008 61.6667 73.7008 61.8C73.7008 61.9333 73.6841 62.1167 73.6508 62.35L73.7758 62.375ZM98.0762 72.525C97.0762 72.525 96.2178 72.35 95.5012 72C94.7845 71.6667 94.2345 71.175 93.8512 70.525C93.4845 69.875 93.3012 69.1 93.3012 68.2C93.3012 68.05 93.3012 67.9083 93.3012 67.775C93.3178 67.6417 93.3345 67.4583 93.3512 67.225L93.2262 67.2C92.8762 68.2833 92.4428 69.1833 91.9262 69.9C91.4262 70.6 90.8512 71.125 90.2012 71.475C89.5512 71.825 88.8178 72 88.0012 72C87.3178 72 86.7512 71.875 86.3012 71.625C85.8512 71.375 85.5178 70.9917 85.3012 70.475C85.0845 69.9583 84.9762 69.3083 84.9762 68.525C84.9762 67.7417 85.0595 66.875 85.2262 65.925C85.3928 64.975 85.5595 64.025 85.7262 63.075C85.8928 62.1083 85.9762 61.2333 85.9762 60.45C85.9762 59.9833 85.9512 59.525 85.9012 59.075C85.8678 58.625 85.7845 58.1667 85.6512 57.7C86.7512 57.7 87.6845 57.7667 88.4512 57.9C89.2345 58.0333 89.8262 58.2917 90.2262 58.675C90.6428 59.0417 90.8512 59.6083 90.8512 60.375C90.8512 60.9917 90.7678 61.725 90.6012 62.575C90.4345 63.425 90.2678 64.2917 90.1012 65.175C89.9345 66.0583 89.8512 66.8583 89.8512 67.575C89.8512 68.1583 89.9178 68.6083 90.0512 68.925C90.1845 69.2417 90.3845 69.4 90.6512 69.4C90.9678 69.4 91.2678 69.2333 91.5512 68.9C91.8512 68.55 92.1262 68.0667 92.3762 67.45C92.6262 66.8333 92.8428 66.125 93.0262 65.325C93.2095 64.5083 93.3512 63.6333 93.4512 62.7C93.5678 61.75 93.6262 60.775 93.6262 59.775C93.6262 59.3417 93.6095 58.9667 93.5762 58.65C93.5595 58.3167 93.5262 58.0417 93.4762 57.825C93.9262 57.7083 94.3262 57.6333 94.6762 57.6C95.0428 57.55 95.3845 57.525 95.7012 57.525C96.4012 57.525 96.9678 57.6 97.4012 57.75C97.8512 57.9 98.1762 58.1333 98.3762 58.45C98.5928 58.75 98.7012 59.15 98.7012 59.65C98.7012 60.0333 98.6428 60.5667 98.5262 61.25C98.4262 61.9167 98.3095 62.675 98.1762 63.525C98.0428 64.375 97.9178 65.2583 97.8012 66.175C97.7012 67.0917 97.6512 67.9833 97.6512 68.85C97.6512 69.5 97.6845 70.1417 97.7512 70.775C97.8345 71.4083 97.9428 71.9917 98.0762 72.525ZM107.502 72.375C106.302 72.375 105.26 72.125 104.377 71.625C103.494 71.125 102.802 70.4167 102.302 69.5C101.819 68.5833 101.577 67.5083 101.577 66.275C101.577 65.0417 101.777 63.9 102.177 62.85C102.594 61.7833 103.169 60.8583 103.902 60.075C104.652 59.2917 105.519 58.6833 106.502 58.25C107.502 57.8 108.585 57.575 109.752 57.575C111.152 57.575 112.252 57.9 113.052 58.55C113.852 59.1833 114.252 60.0667 114.252 61.2C114.252 62.1167 114.01 62.925 113.527 63.625C113.06 64.325 112.402 64.875 111.552 65.275C110.719 65.6583 109.735 65.85 108.602 65.85C108.219 65.85 107.852 65.825 107.502 65.775C107.169 65.7083 106.835 65.6167 106.502 65.5L106.577 64.525H107.227C107.694 64.525 108.094 64.3667 108.427 64.05C108.76 63.7333 109.019 63.2917 109.202 62.725C109.385 62.1417 109.477 61.4667 109.477 60.7C109.477 60.2333 109.402 59.8583 109.252 59.575C109.102 59.275 108.902 59.125 108.652 59.125C108.335 59.125 108.052 59.3667 107.802 59.85C107.569 60.3333 107.369 60.95 107.202 61.7C107.035 62.4333 106.91 63.2 106.827 64C106.76 64.7833 106.727 65.4833 106.727 66.1C106.727 67.7833 106.919 68.9417 107.302 69.575C107.702 70.2083 108.302 70.525 109.102 70.525C110.369 70.525 111.477 69.7083 112.427 68.075C113.027 68.225 113.327 68.5333 113.327 69C112.644 70.0833 111.802 70.9167 110.802 71.5C109.802 72.0833 108.702 72.375 107.502 72.375ZM121.263 72.5C119.746 72.5 118.521 72.225 117.588 71.675C116.671 71.125 116.213 70.4083 116.213 69.525C116.213 68.8417 116.488 68.275 117.038 67.825C117.604 67.375 118.313 67.15 119.163 67.15C119.163 67.7333 119.204 68.2583 119.288 68.725C119.388 69.175 119.529 69.5667 119.713 69.9C119.896 70.2167 120.113 70.4583 120.363 70.625C120.613 70.7917 120.896 70.875 121.213 70.875C121.496 70.875 121.738 70.8083 121.938 70.675C122.154 70.5417 122.321 70.3583 122.438 70.125C122.571 69.8917 122.638 69.6333 122.638 69.35C122.638 68.9167 122.504 68.525 122.238 68.175C121.971 67.825 121.621 67.4917 121.188 67.175C120.771 66.8583 120.321 66.5333 119.838 66.2C119.354 65.8667 118.896 65.5 118.463 65.1C118.046 64.7 117.704 64.2417 117.438 63.725C117.171 63.1917 117.038 62.575 117.038 61.875C117.038 60.975 117.279 60.1917 117.763 59.525C118.246 58.8583 118.921 58.3417 119.788 57.975C120.671 57.6083 121.696 57.425 122.863 57.425C123.779 57.425 124.571 57.5417 125.238 57.775C125.921 58.0083 126.446 58.3333 126.813 58.75C127.179 59.1667 127.363 59.6667 127.363 60.25C127.363 60.95 127.104 61.525 126.588 61.975C126.088 62.4083 125.438 62.625 124.638 62.625C124.638 61.9083 124.563 61.2833 124.413 60.75C124.263 60.2167 124.054 59.8 123.788 59.5C123.538 59.2 123.229 59.05 122.863 59.05C122.646 59.05 122.446 59.1083 122.263 59.225C122.096 59.3417 121.963 59.5083 121.863 59.725C121.763 59.9417 121.713 60.1917 121.713 60.475C121.713 60.975 121.846 61.4167 122.113 61.8C122.396 62.1833 122.754 62.5417 123.188 62.875C123.621 63.2083 124.079 63.5417 124.563 63.875C125.063 64.2083 125.529 64.575 125.963 64.975C126.396 65.375 126.746 65.825 127.013 66.325C127.296 66.825 127.438 67.4083 127.438 68.075C127.438 68.9583 127.179 69.7333 126.663 70.4C126.146 71.0667 125.421 71.5833 124.488 71.95C123.571 72.3167 122.496 72.5 121.263 72.5ZM134.871 70.425C134.871 71.125 134.896 71.7333 134.946 72.25C135.012 72.7833 135.104 73.175 135.221 73.425C133.937 73.425 132.937 73.2667 132.221 72.95C131.521 72.6333 131.029 72.15 130.746 71.5C130.479 70.8333 130.346 69.9833 130.346 68.95C130.346 67.9167 130.429 66.8917 130.596 65.875C130.762 64.8417 130.954 63.775 131.171 62.675C131.387 61.5583 131.579 60.3667 131.746 59.1C131.912 57.8167 131.996 56.4083 131.996 54.875C131.996 54.6083 131.987 54.3417 131.971 54.075C131.971 53.7917 131.971 53.5167 131.971 53.25C133.621 53.25 134.804 53.5333 135.521 54.1C136.254 54.65 136.621 55.4667 136.621 56.55C136.621 57.45 136.529 58.4583 136.346 59.575C136.179 60.6917 135.979 61.875 135.746 63.125C135.512 64.3583 135.304 65.6 135.121 66.85C134.954 68.0833 134.871 69.275 134.871 70.425ZM138.946 57.4C138.996 57.6 139.037 57.8083 139.071 58.025C139.104 58.2417 139.121 58.45 139.121 58.65C139.121 59.6 138.921 60.2333 138.521 60.55C138.121 60.8667 137.587 61.025 136.921 61.025C135.987 61.025 135.179 61.0417 134.496 61.075C133.812 61.0917 133.196 61.1417 132.646 61.225C132.112 61.2917 131.587 61.3917 131.071 61.525C130.554 61.6583 129.996 61.8333 129.396 62.05C129.362 61.8 129.321 61.5417 129.271 61.275C129.237 60.9917 129.221 60.725 129.221 60.475C129.221 59.8083 129.379 59.3083 129.696 58.975C130.029 58.6417 130.462 58.425 130.996 58.325C131.546 58.2083 132.154 58.15 132.821 58.15C133.254 58.15 133.696 58.1667 134.146 58.2C134.596 58.2167 135.029 58.225 135.446 58.225C136.112 58.225 136.754 58.175 137.371 58.075C138.004 57.9583 138.529 57.7333 138.946 57.4ZM145.133 62.775C145.583 61.425 146.033 60.375 146.483 59.625C146.949 58.8583 147.433 58.325 147.933 58.025C148.433 57.7083 148.966 57.55 149.533 57.55C150.016 57.55 150.441 57.675 150.808 57.925C151.191 58.175 151.483 58.5167 151.683 58.95C151.899 59.3667 152.008 59.8583 152.008 60.425C152.008 61.1917 151.841 61.875 151.508 62.475C151.191 63.0583 150.749 63.525 150.183 63.875C149.616 64.2083 148.966 64.375 148.233 64.375C147.999 64.375 147.783 64.3667 147.583 64.35C147.399 64.3167 147.233 64.2667 147.083 64.2C147.316 63.8 147.491 63.3583 147.608 62.875C147.741 62.3917 147.816 61.9417 147.833 61.525C147.849 61.1917 147.824 60.95 147.758 60.8C147.691 60.6333 147.591 60.55 147.458 60.55C147.158 60.55 146.858 60.8167 146.558 61.35C146.258 61.8667 145.983 62.5667 145.733 63.45C145.499 64.3167 145.308 65.2917 145.158 66.375C145.024 67.4583 144.958 68.5667 144.958 69.7C144.958 70.1667 144.966 70.575 144.983 70.925C145.016 71.2583 145.058 71.5333 145.108 71.75C144.691 71.85 144.299 71.925 143.933 71.975C143.566 72.025 143.199 72.05 142.833 72.05C141.816 72.05 141.066 71.8833 140.583 71.55C140.116 71.2 139.883 70.6667 139.883 69.95C139.883 69.5667 139.933 69.0417 140.033 68.375C140.149 67.6917 140.274 66.925 140.408 66.075C140.541 65.225 140.658 64.3417 140.758 63.425C140.874 62.4917 140.933 61.5917 140.933 60.725C140.933 60.075 140.891 59.4333 140.808 58.8C140.741 58.1667 140.641 57.5833 140.508 57.05C141.924 57.05 143.033 57.4333 143.833 58.2C144.633 58.95 145.033 59.9917 145.033 61.325C145.033 61.5083 145.024 61.725 145.008 61.975C145.008 62.225 144.991 62.4833 144.958 62.75L145.133 62.775ZM160.625 68.3C160.309 69.1333 159.892 69.85 159.375 70.45C158.875 71.05 158.309 71.5083 157.675 71.825C157.042 72.1417 156.359 72.3 155.625 72.3C154.442 72.3 153.525 71.875 152.875 71.025C152.225 70.175 151.9 68.9833 151.9 67.45C151.9 66.1833 152.109 64.9917 152.525 63.875C152.942 62.7417 153.517 61.7417 154.25 60.875C154.984 60.0083 155.825 59.325 156.775 58.825C157.725 58.325 158.734 58.075 159.8 58.075C160.267 58.075 160.759 58.125 161.275 58.225C161.809 58.3083 162.259 58.425 162.625 58.575C161.825 58.8417 161.075 59.275 160.375 59.875C159.675 60.4583 159.059 61.15 158.525 61.95C158.009 62.75 157.6 63.6167 157.3 64.55C157 65.4833 156.85 66.4333 156.85 67.4C156.85 68.1667 156.95 68.7833 157.15 69.25C157.35 69.7 157.625 69.925 157.975 69.925C158.375 69.925 158.767 69.6417 159.15 69.075C159.55 68.5083 159.917 67.7583 160.25 66.825C160.584 65.8917 160.85 64.8667 161.05 63.75C161.25 62.6333 161.35 61.5167 161.35 60.4C161.35 59.95 161.334 59.525 161.3 59.125C161.284 58.7083 161.25 58.35 161.2 58.05C161.584 57.9333 161.934 57.8583 162.25 57.825C162.567 57.775 162.934 57.75 163.35 57.75C164.384 57.75 165.134 57.9167 165.6 58.25C166.084 58.5833 166.325 59.1167 166.325 59.85C166.325 60.25 166.267 60.7917 166.15 61.475C166.034 62.1583 165.892 62.925 165.725 63.775C165.575 64.625 165.434 65.525 165.3 66.475C165.184 67.4083 165.125 68.3333 165.125 69.25C165.125 69.95 165.184 70.5583 165.3 71.075C165.417 71.5917 165.617 72.175 165.9 72.825C164.134 72.825 162.834 72.5 162 71.85C161.184 71.2 160.775 70.1917 160.775 68.825C160.775 68.6417 160.775 68.525 160.775 68.475C160.775 68.425 160.784 68.375 160.8 68.325L160.625 68.3ZM180.72 70.425C180.72 71.125 180.745 71.7333 180.795 72.25C180.862 72.7833 180.954 73.175 181.07 73.425C179.787 73.425 178.787 73.2667 178.07 72.95C177.37 72.6333 176.879 72.15 176.595 71.5C176.329 70.8333 176.195 69.9833 176.195 68.95C176.195 67.9167 176.279 66.8917 176.445 65.875C176.612 64.8417 176.804 63.775 177.02 62.675C177.237 61.5583 177.429 60.3667 177.595 59.1C177.762 57.8167 177.845 56.4083 177.845 54.875C177.845 54.6083 177.837 54.3417 177.82 54.075C177.82 53.7917 177.82 53.5167 177.82 53.25C179.47 53.25 180.654 53.5333 181.37 54.1C182.104 54.65 182.47 55.4667 182.47 56.55C182.47 57.45 182.379 58.4583 182.195 59.575C182.029 60.6917 181.829 61.875 181.595 63.125C181.362 64.3583 181.154 65.6 180.97 66.85C180.804 68.0833 180.72 69.275 180.72 70.425ZM184.795 57.4C184.845 57.6 184.887 57.8083 184.92 58.025C184.954 58.2417 184.97 58.45 184.97 58.65C184.97 59.6 184.77 60.2333 184.37 60.55C183.97 60.8667 183.437 61.025 182.77 61.025C181.837 61.025 181.029 61.0417 180.345 61.075C179.662 61.0917 179.045 61.1417 178.495 61.225C177.962 61.2917 177.437 61.3917 176.92 61.525C176.404 61.6583 175.845 61.8333 175.245 62.05C175.212 61.8 175.17 61.5417 175.12 61.275C175.087 60.9917 175.07 60.725 175.07 60.475C175.07 59.8083 175.229 59.3083 175.545 58.975C175.879 58.6417 176.312 58.425 176.845 58.325C177.395 58.2083 178.004 58.15 178.67 58.15C179.104 58.15 179.545 58.1667 179.995 58.2C180.445 58.2167 180.879 58.225 181.295 58.225C181.962 58.225 182.604 58.175 183.22 58.075C183.854 57.9583 184.379 57.7333 184.795 57.4ZM190.657 69.8C190.657 70.4167 190.682 70.9417 190.732 71.375C190.782 71.8083 190.857 72.1417 190.957 72.375C189.874 72.375 188.974 72.2167 188.257 71.9C187.541 71.5667 187.007 71.075 186.657 70.425C186.324 69.7583 186.157 68.9167 186.157 67.9C186.157 67.1333 186.224 66.325 186.357 65.475C186.491 64.6083 186.624 63.7 186.757 62.75C186.891 61.7833 186.957 60.775 186.957 59.725C186.957 59.375 186.941 59.025 186.907 58.675C186.874 58.325 186.807 58.0083 186.707 57.725C187.091 57.6417 187.499 57.575 187.932 57.525C188.382 57.4583 188.766 57.425 189.082 57.425C190.132 57.425 190.866 57.5917 191.282 57.925C191.699 58.2417 191.907 58.7917 191.907 59.575C191.907 60.0583 191.807 60.8083 191.607 61.825C191.407 62.8417 191.199 64.0333 190.982 65.4C190.782 66.7667 190.674 68.2333 190.657 69.8ZM191.457 55.65C191.124 55.75 190.757 55.8333 190.357 55.9C189.974 55.95 189.591 55.975 189.207 55.975C188.824 55.975 188.449 55.925 188.082 55.825C187.716 55.7083 187.416 55.5083 187.182 55.225C186.966 54.9417 186.857 54.5333 186.857 54C186.857 53.5333 186.916 53.0833 187.032 52.65C187.149 52.2167 187.282 51.7667 187.432 51.3C187.766 51.2167 188.132 51.15 188.532 51.1C188.932 51.0333 189.316 51 189.682 51C190.082 51 190.457 51.0583 190.807 51.175C191.174 51.275 191.466 51.4667 191.682 51.75C191.916 52.0167 192.032 52.4167 192.032 52.95C192.032 53.4167 191.974 53.8667 191.857 54.3C191.741 54.7333 191.607 55.1833 191.457 55.65ZM200.691 72.375C199.491 72.375 198.449 72.125 197.566 71.625C196.682 71.125 195.991 70.4167 195.491 69.5C195.007 68.5833 194.766 67.5083 194.766 66.275C194.766 65.0417 194.966 63.9 195.366 62.85C195.782 61.7833 196.357 60.8583 197.091 60.075C197.841 59.2917 198.707 58.6833 199.691 58.25C200.691 57.8 201.774 57.575 202.941 57.575C204.341 57.575 205.441 57.9 206.241 58.55C207.041 59.1833 207.441 60.0667 207.441 61.2C207.441 62.1167 207.199 62.925 206.716 63.625C206.249 64.325 205.591 64.875 204.741 65.275C203.907 65.6583 202.924 65.85 201.791 65.85C201.407 65.85 201.041 65.825 200.691 65.775C200.357 65.7083 200.024 65.6167 199.691 65.5L199.766 64.525H200.416C200.882 64.525 201.282 64.3667 201.616 64.05C201.949 63.7333 202.207 63.2917 202.391 62.725C202.574 62.1417 202.666 61.4667 202.666 60.7C202.666 60.2333 202.591 59.8583 202.441 59.575C202.291 59.275 202.091 59.125 201.841 59.125C201.524 59.125 201.241 59.3667 200.991 59.85C200.757 60.3333 200.557 60.95 200.391 61.7C200.224 62.4333 200.099 63.2 200.016 64C199.949 64.7833 199.916 65.4833 199.916 66.1C199.916 67.7833 200.107 68.9417 200.491 69.575C200.891 70.2083 201.491 70.525 202.291 70.525C203.557 70.525 204.666 69.7083 205.616 68.075C206.216 68.225 206.516 68.5333 206.516 69C205.832 70.0833 204.991 70.9167 203.991 71.5C202.991 72.0833 201.891 72.375 200.691 72.375ZM215.201 62.775C215.651 61.425 216.101 60.375 216.551 59.625C217.018 58.8583 217.501 58.325 218.001 58.025C218.501 57.7083 219.035 57.55 219.601 57.55C220.085 57.55 220.51 57.675 220.876 57.925C221.26 58.175 221.551 58.5167 221.751 58.95C221.968 59.3667 222.076 59.8583 222.076 60.425C222.076 61.1917 221.91 61.875 221.576 62.475C221.26 63.0583 220.818 63.525 220.251 63.875C219.685 64.2083 219.035 64.375 218.301 64.375C218.068 64.375 217.851 64.3667 217.651 64.35C217.468 64.3167 217.301 64.2667 217.151 64.2C217.385 63.8 217.56 63.3583 217.676 62.875C217.81 62.3917 217.885 61.9417 217.901 61.525C217.918 61.1917 217.893 60.95 217.826 60.8C217.76 60.6333 217.66 60.55 217.526 60.55C217.226 60.55 216.926 60.8167 216.626 61.35C216.326 61.8667 216.051 62.5667 215.801 63.45C215.568 64.3167 215.376 65.2917 215.226 66.375C215.093 67.4583 215.026 68.5667 215.026 69.7C215.026 70.1667 215.035 70.575 215.051 70.925C215.085 71.2583 215.126 71.5333 215.176 71.75C214.76 71.85 214.368 71.925 214.001 71.975C213.635 72.025 213.268 72.05 212.901 72.05C211.885 72.05 211.135 71.8833 210.651 71.55C210.185 71.2 209.951 70.6667 209.951 69.95C209.951 69.5667 210.001 69.0417 210.101 68.375C210.218 67.6917 210.343 66.925 210.476 66.075C210.61 65.225 210.726 64.3417 210.826 63.425C210.943 62.4917 211.001 61.5917 211.001 60.725C211.001 60.075 210.96 59.4333 210.876 58.8C210.81 58.1667 210.71 57.5833 210.576 57.05C211.993 57.05 213.101 57.4333 213.901 58.2C214.701 58.95 215.101 59.9917 215.101 61.325C215.101 61.5083 215.093 61.725 215.076 61.975C215.076 62.225 215.06 62.4833 215.026 62.75L215.201 62.775ZM228.019 62.775C228.469 61.425 228.919 60.375 229.369 59.625C229.835 58.8583 230.319 58.325 230.819 58.025C231.319 57.7083 231.852 57.55 232.419 57.55C232.902 57.55 233.327 57.675 233.694 57.925C234.077 58.175 234.369 58.5167 234.569 58.95C234.785 59.3667 234.894 59.8583 234.894 60.425C234.894 61.1917 234.727 61.875 234.394 62.475C234.077 63.0583 233.635 63.525 233.069 63.875C232.502 64.2083 231.852 64.375 231.119 64.375C230.885 64.375 230.669 64.3667 230.469 64.35C230.285 64.3167 230.119 64.2667 229.969 64.2C230.202 63.8 230.377 63.3583 230.494 62.875C230.627 62.3917 230.702 61.9417 230.719 61.525C230.735 61.1917 230.71 60.95 230.644 60.8C230.577 60.6333 230.477 60.55 230.344 60.55C230.044 60.55 229.744 60.8167 229.444 61.35C229.144 61.8667 228.869 62.5667 228.619 63.45C228.385 64.3167 228.194 65.2917 228.044 66.375C227.91 67.4583 227.844 68.5667 227.844 69.7C227.844 70.1667 227.852 70.575 227.869 70.925C227.902 71.2583 227.944 71.5333 227.994 71.75C227.577 71.85 227.185 71.925 226.819 71.975C226.452 72.025 226.085 72.05 225.719 72.05C224.702 72.05 223.952 71.8833 223.469 71.55C223.002 71.2 222.769 70.6667 222.769 69.95C222.769 69.5667 222.819 69.0417 222.919 68.375C223.035 67.6917 223.16 66.925 223.294 66.075C223.427 65.225 223.544 64.3417 223.644 63.425C223.76 62.4917 223.819 61.5917 223.819 60.725C223.819 60.075 223.777 59.4333 223.694 58.8C223.627 58.1667 223.527 57.5833 223.394 57.05C224.81 57.05 225.919 57.4333 226.719 58.2C227.519 58.95 227.919 59.9917 227.919 61.325C227.919 61.5083 227.91 61.725 227.894 61.975C227.894 62.225 227.877 62.4833 227.844 62.75L228.019 62.775ZM243.511 68.3C243.194 69.1333 242.778 69.85 242.261 70.45C241.761 71.05 241.194 71.5083 240.561 71.825C239.928 72.1417 239.244 72.3 238.511 72.3C237.328 72.3 236.411 71.875 235.761 71.025C235.111 70.175 234.786 68.9833 234.786 67.45C234.786 66.1833 234.994 64.9917 235.411 63.875C235.828 62.7417 236.403 61.7417 237.136 60.875C237.869 60.0083 238.711 59.325 239.661 58.825C240.611 58.325 241.619 58.075 242.686 58.075C243.153 58.075 243.644 58.125 244.161 58.225C244.694 58.3083 245.144 58.425 245.511 58.575C244.711 58.8417 243.961 59.275 243.261 59.875C242.561 60.4583 241.944 61.15 241.411 61.95C240.894 62.75 240.486 63.6167 240.186 64.55C239.886 65.4833 239.736 66.4333 239.736 67.4C239.736 68.1667 239.836 68.7833 240.036 69.25C240.236 69.7 240.511 69.925 240.861 69.925C241.261 69.925 241.653 69.6417 242.036 69.075C242.436 68.5083 242.803 67.7583 243.136 66.825C243.469 65.8917 243.736 64.8667 243.936 63.75C244.136 62.6333 244.236 61.5167 244.236 60.4C244.236 59.95 244.219 59.525 244.186 59.125C244.169 58.7083 244.136 58.35 244.086 58.05C244.469 57.9333 244.819 57.8583 245.136 57.825C245.453 57.775 245.819 57.75 246.236 57.75C247.269 57.75 248.019 57.9167 248.486 58.25C248.969 58.5833 249.211 59.1167 249.211 59.85C249.211 60.25 249.153 60.7917 249.036 61.475C248.919 62.1583 248.778 62.925 248.611 63.775C248.461 64.625 248.319 65.525 248.186 66.475C248.069 67.4083 248.011 68.3333 248.011 69.25C248.011 69.95 248.069 70.5583 248.186 71.075C248.303 71.5917 248.503 72.175 248.786 72.825C247.019 72.825 245.719 72.5 244.886 71.85C244.069 71.2 243.661 70.1917 243.661 68.825C243.661 68.6417 243.661 68.525 243.661 68.475C243.661 68.425 243.669 68.375 243.686 68.325L243.511 68.3Z" fill="#2B2118"/>
    <path d="M27.5413 15.535C27.2213 16.9483 26.6879 18.5883 25.9413 20.455C25.2213 22.295 24.3813 24.2683 23.4213 26.375C22.4879 28.455 21.5279 30.6017 20.5413 32.815C19.5813 35.0017 18.6746 37.1617 17.8213 39.295C16.9946 41.4283 16.3279 43.4417 15.8213 45.335C14.2746 44.9617 13.0746 44.6017 12.2213 44.255C11.3946 43.9083 10.8213 43.5617 10.5012 43.215C10.1812 42.8683 10.0212 42.5483 10.0212 42.255C10.0212 41.9083 10.2746 41.1883 10.7812 40.095C11.3146 39.0017 11.9946 37.6417 12.8213 36.015C13.6746 34.3883 14.5946 32.6017 15.5813 30.655C16.5946 28.6817 17.6079 26.655 18.6213 24.575C19.6346 22.495 20.5546 20.455 21.3813 18.455C22.2346 16.455 22.9013 14.615 23.3813 12.935L27.5413 15.535ZM29.1813 41.415C28.9946 40.8817 28.7546 40.0417 28.4613 38.895C28.1946 37.7483 27.9013 36.4017 27.5813 34.855C27.2613 33.3083 26.9146 31.655 26.5413 29.895C26.1679 28.135 25.7813 26.3883 25.3813 24.655C24.9813 22.895 24.5679 21.2417 24.1413 19.695C23.7413 18.1483 23.3413 16.815 22.9413 15.695C22.5946 14.7617 22.2079 14.0417 21.7813 13.535C21.3546 13.0283 21.0079 12.615 20.7413 12.295C21.3546 12.135 21.9546 12.015 22.5412 11.935C23.1279 11.855 23.6346 11.815 24.0613 11.815C25.7413 11.815 27.0746 12.095 28.0613 12.655C29.0746 13.1883 29.8613 13.9883 30.4213 15.055C31.0079 16.1217 31.4879 17.4283 31.8613 18.975C32.2346 20.5217 32.6346 22.2817 33.0613 24.255C33.6479 26.9483 34.1813 29.5217 34.6613 31.975C35.1679 34.4283 35.7279 36.655 36.3413 38.655C36.9813 40.6283 37.7546 42.255 38.6613 43.535C37.7546 43.855 36.8346 44.1217 35.9013 44.335C34.9679 44.5483 34.1813 44.655 33.5413 44.655C32.1546 44.655 31.1679 44.375 30.5813 43.815C30.0213 43.2283 29.5546 42.4283 29.1813 41.415ZM18.7013 31.775H29.4613C29.3813 32.5217 29.1813 33.1883 28.8613 33.775C28.5679 34.335 28.1413 34.7883 27.5813 35.135C27.0479 35.4817 26.3679 35.6683 25.5413 35.695L16.6213 35.975L18.7013 31.775ZM58.2356 28.775C58.929 31.0417 59.7823 33.2817 60.7956 35.495C61.8356 37.6817 62.929 39.655 64.0756 41.415C65.2223 43.175 66.289 44.5483 67.2756 45.535C66.5023 45.6683 65.7823 45.7617 65.1156 45.815C64.4756 45.895 63.9156 45.935 63.4356 45.935C61.9956 45.935 60.7156 45.615 59.5956 44.975C58.5023 44.335 57.529 43.4683 56.6756 42.375C55.8223 41.255 55.049 40.0017 54.3556 38.615C53.689 37.2283 53.0756 35.775 52.5156 34.255C51.9556 32.7083 51.409 31.2017 50.8756 29.735L58.2356 28.775ZM49.7956 14.375C50.889 13.7617 52.1023 13.295 53.4356 12.975C54.769 12.655 56.089 12.495 57.3956 12.495C59.1823 12.495 60.7423 12.8283 62.0756 13.495C63.4356 14.135 64.489 15.055 65.2356 16.255C65.9823 17.4283 66.3556 18.815 66.3556 20.415C66.3556 21.9883 66.009 23.455 65.3156 24.815C64.6223 26.1483 63.649 27.3217 62.3956 28.335C61.1423 29.3483 59.689 30.1483 58.0356 30.735C56.3823 31.295 54.5956 31.575 52.6756 31.575C52.1956 31.575 51.7556 31.5617 51.3556 31.535C50.9556 31.5083 50.5956 31.4683 50.2756 31.415L50.1556 29.055C51.4623 29.055 52.649 28.8817 53.7156 28.535C54.7823 28.1617 55.689 27.6417 56.4356 26.975C57.209 26.2817 57.7956 25.4683 58.1956 24.535C58.6223 23.6017 58.8356 22.5617 58.8356 21.415C58.8356 20.4017 58.649 19.535 58.2756 18.815C57.929 18.0683 57.4223 17.495 56.7556 17.095C56.089 16.695 55.289 16.495 54.3556 16.495C53.769 16.495 53.1423 16.575 52.4756 16.735C51.809 16.8683 51.129 17.0817 50.4356 17.375L49.7956 14.375ZM41.1956 40.975C41.1956 40.1483 41.289 39.015 41.4756 37.575C41.6623 36.1083 41.889 34.4683 42.1556 32.655C42.4223 30.8417 42.6756 28.935 42.9156 26.935C43.1823 24.935 43.409 22.9617 43.5956 21.015C43.7823 19.0683 43.8756 17.2417 43.8756 15.535C43.8756 13.4017 43.689 11.8817 43.3156 10.975C45.2623 11.055 46.8223 11.3217 47.9956 11.775C49.1956 12.2283 50.0756 12.8817 50.6356 13.735C51.1956 14.5617 51.4756 15.6417 51.4756 16.975C51.4756 17.9617 51.3556 19.2817 51.1156 20.935C50.9023 22.5617 50.6356 24.4283 50.3156 26.535C50.0223 28.6417 49.7556 30.935 49.5156 33.415C49.3023 35.8683 49.1956 38.4417 49.1956 41.135C49.1956 41.8283 49.209 42.4683 49.2356 43.055C49.289 43.615 49.3556 44.1083 49.4356 44.535C48.849 44.5883 48.3156 44.6283 47.8356 44.655C47.3823 44.6817 46.9823 44.695 46.6356 44.695C44.5556 44.695 43.129 44.4283 42.3556 43.895C41.5823 43.3617 41.1956 42.3883 41.1956 40.975ZM67.5297 15.655C67.5297 15.015 67.5697 14.3883 67.6497 13.775C67.703 13.1617 67.783 12.6417 67.8897 12.215C69.4364 12.5883 71.0364 12.855 72.6897 13.015C74.343 13.175 76.023 13.255 77.7297 13.255C80.1564 13.255 82.5697 13.0817 84.9697 12.735C87.3964 12.3617 89.743 11.8417 92.0097 11.175C91.823 12.8817 91.543 14.295 91.1697 15.415C90.7964 16.5083 90.2497 17.3483 89.5297 17.935C88.8364 18.5217 87.863 18.9083 86.6097 19.095C85.5697 19.255 84.3164 19.4017 82.8497 19.535C81.383 19.6683 79.863 19.7883 78.2897 19.895C76.7164 20.0017 75.2097 20.095 73.7697 20.175C72.3297 20.2283 71.103 20.255 70.0897 20.255C69.423 20.255 68.903 20.0283 68.5297 19.575C68.1564 19.095 67.903 18.5083 67.7697 17.815C67.6097 17.095 67.5297 16.375 67.5297 15.655ZM83.3297 16.655C83.3297 17.5083 83.2364 18.6817 83.0497 20.175C82.8897 21.6683 82.6897 23.335 82.4497 25.175C82.2097 27.015 81.9697 28.895 81.7297 30.815C81.4897 32.735 81.2764 34.575 81.0897 36.335C80.9297 38.0683 80.8497 39.5883 80.8497 40.895C80.8497 42.895 81.023 44.3483 81.3697 45.255C79.0764 44.855 77.3697 44.3617 76.2497 43.775C75.1297 43.1883 74.383 42.495 74.0097 41.695C73.663 40.8683 73.4897 39.9217 73.4897 38.855C73.4897 38.0283 73.5564 36.935 73.6897 35.575C73.8497 34.1883 74.0364 32.6417 74.2497 30.935C74.463 29.2283 74.6764 27.455 74.8897 25.615C75.1297 23.775 75.3164 21.9617 75.4497 20.175C75.6097 18.3883 75.6897 16.735 75.6897 15.215L83.3297 16.655ZM95.9906 42.855C95.4306 42.3217 95.0573 41.735 94.8706 41.095C94.7106 40.4283 94.6306 39.695 94.6306 38.895C94.6306 38.0683 94.6973 36.975 94.8306 35.615C94.9906 34.2283 95.1773 32.6817 95.3906 30.975C95.604 29.2683 95.8173 27.495 96.0306 25.655C96.2706 23.815 96.4573 22.0017 96.5906 20.215C96.7506 18.4283 96.8306 16.775 96.8306 15.255L104.391 15.175C104.444 15.415 104.471 15.655 104.471 15.895C104.471 16.135 104.471 16.4017 104.471 16.695C104.471 17.5483 104.377 18.7217 104.191 20.215C104.031 21.7083 103.831 23.375 103.591 25.215C103.351 27.055 103.111 28.935 102.871 30.855C102.631 32.775 102.417 34.615 102.231 36.375C102.071 38.1083 101.991 39.6283 101.991 40.935C101.991 41.1217 101.991 41.295 101.991 41.455C101.991 41.615 101.991 41.775 101.991 41.935L95.9906 42.855ZM92.0706 44.775C92.1506 44.3483 92.324 43.7883 92.5906 43.095C92.8573 42.4017 93.2706 41.695 93.8306 40.975C94.4173 40.255 95.204 39.655 96.1906 39.175C97.204 38.6683 98.484 38.415 100.031 38.415C101.631 38.415 103.204 38.375 104.751 38.295C106.324 38.1883 107.804 38.0417 109.191 37.855C110.577 37.6683 111.831 37.455 112.951 37.215C114.071 36.9483 115.004 36.6683 115.751 36.375C115.457 39.1483 114.764 41.2417 113.671 42.655C112.604 44.0683 111.324 44.775 109.831 44.775C108.817 44.775 107.391 44.615 105.551 44.295C103.737 44.0017 101.684 43.855 99.3906 43.855C98.324 43.855 97.164 43.9083 95.9106 44.015C94.684 44.1483 93.404 44.4017 92.0706 44.775ZM94.1906 32.815C94.1373 32.415 94.0706 32.0017 93.9906 31.575C93.9106 31.1217 93.8706 30.695 93.8706 30.295C93.8706 29.2283 94.1506 28.4283 94.7106 27.895C95.2706 27.3617 96.0173 27.015 96.9506 26.855C97.884 26.6683 98.924 26.575 100.071 26.575C100.577 26.575 101.084 26.5883 101.591 26.615C102.097 26.615 102.604 26.6283 103.111 26.655C103.644 26.6817 104.151 26.695 104.631 26.695C105.777 26.695 106.884 26.615 107.951 26.455C109.017 26.2683 109.911 25.9083 110.631 25.375C110.737 25.695 110.817 26.0283 110.871 26.375C110.924 26.7217 110.951 27.055 110.951 27.375C110.951 28.895 110.631 29.9083 109.991 30.415C109.377 30.9217 108.564 31.175 107.551 31.175C106.884 31.175 106.244 31.175 105.631 31.175C105.044 31.175 104.484 31.1617 103.951 31.135C102.537 31.135 101.297 31.175 100.231 31.255C99.1906 31.335 98.204 31.495 97.2706 31.735C96.3373 31.975 95.3106 32.335 94.1906 32.815ZM97.3906 19.455C96.6173 19.455 95.9906 19.3083 95.5106 19.015C95.0573 18.7217 94.724 18.2417 94.5106 17.575C94.324 16.9083 94.2306 16.0017 94.2306 14.855C94.2306 14.3217 94.2573 13.815 94.3106 13.335C94.364 12.855 94.444 12.4417 94.5506 12.095C96.0973 12.3083 97.7506 12.4817 99.5106 12.615C101.271 12.7217 103.031 12.775 104.791 12.775C106.844 12.775 108.897 12.6817 110.951 12.495C113.004 12.2817 115.004 12.0017 116.951 11.655C116.764 13.6017 116.191 15.1483 115.231 16.295C114.297 17.415 112.937 18.175 111.151 18.575C110.297 18.7617 109.191 18.9217 107.831 19.055C106.497 19.1883 104.951 19.295 103.191 19.375C101.431 19.4283 99.4973 19.455 97.3906 19.455ZM128.308 18.855C128.308 19.9483 128.628 20.935 129.268 21.815C129.935 22.6683 130.775 23.4817 131.788 24.255C132.802 25.0017 133.882 25.7617 135.028 26.535C136.175 27.3083 137.255 28.135 138.268 29.015C139.282 29.895 140.108 30.895 140.748 32.015C141.415 33.135 141.748 34.4417 141.748 35.935C141.748 37.7483 141.228 39.335 140.188 40.695C139.148 42.055 137.695 43.1217 135.828 43.895C133.962 44.6417 131.788 45.015 129.308 45.015C127.068 45.015 125.095 44.7217 123.388 44.135C121.708 43.5483 120.388 42.7483 119.428 41.735C118.468 40.695 117.988 39.495 117.988 38.135C117.988 37.015 118.268 36.015 118.828 35.135C119.415 34.2283 120.202 33.5083 121.188 32.975C122.175 32.4417 123.268 32.175 124.468 32.175C124.708 32.175 124.975 32.1883 125.268 32.215C125.588 32.2417 125.868 32.2817 126.108 32.335C125.122 33.375 124.628 34.695 124.628 36.295C124.628 37.8417 125.055 39.0817 125.908 40.015C126.762 40.9217 127.895 41.375 129.308 41.375C130.535 41.375 131.562 41.015 132.388 40.295C133.242 39.575 133.668 38.695 133.668 37.655C133.668 36.7217 133.348 35.855 132.708 35.055C132.095 34.255 131.295 33.4817 130.308 32.735C129.348 31.9883 128.308 31.2283 127.188 30.455C126.095 29.655 125.055 28.7883 124.068 27.855C123.108 26.9217 122.308 25.8817 121.668 24.735C121.055 23.5883 120.748 22.2817 120.748 20.815C120.748 19.0283 121.242 17.455 122.228 16.095C123.215 14.735 124.588 13.6817 126.348 12.935C128.108 12.1617 130.135 11.775 132.428 11.775C134.348 11.775 136.028 12.0417 137.468 12.575C138.935 13.1083 140.082 13.855 140.908 14.815C141.735 15.7483 142.148 16.8283 142.148 18.055C142.148 19.0417 141.882 19.935 141.348 20.735C140.842 21.5083 140.135 22.1217 139.228 22.575C138.322 23.0283 137.295 23.255 136.148 23.255C135.802 23.255 135.455 23.2417 135.108 23.215C134.762 23.1617 134.468 23.1083 134.228 23.055C134.655 22.6283 135.002 22.0417 135.268 21.295C135.535 20.5483 135.668 19.8017 135.668 19.055C135.668 17.8817 135.335 16.935 134.668 16.215C134.002 15.4683 133.122 15.095 132.028 15.095C130.962 15.095 130.068 15.455 129.348 16.175C128.655 16.8683 128.308 17.7617 128.308 18.855ZM160.823 15.535C160.503 16.9483 159.969 18.5883 159.223 20.455C158.503 22.295 157.663 24.2683 156.703 26.375C155.769 28.455 154.809 30.6017 153.823 32.815C152.863 35.0017 151.956 37.1617 151.103 39.295C150.276 41.4283 149.609 43.4417 149.103 45.335C147.556 44.9617 146.356 44.6017 145.503 44.255C144.676 43.9083 144.103 43.5617 143.782 43.215C143.462 42.8683 143.302 42.5483 143.302 42.255C143.302 41.9083 143.556 41.1883 144.062 40.095C144.596 39.0017 145.276 37.6417 146.103 36.015C146.956 34.3883 147.876 32.6017 148.863 30.655C149.876 28.6817 150.889 26.655 151.903 24.575C152.916 22.495 153.836 20.455 154.663 18.455C155.516 16.455 156.183 14.615 156.663 12.935L160.823 15.535ZM162.463 41.415C162.276 40.8817 162.036 40.0417 161.743 38.895C161.476 37.7483 161.183 36.4017 160.863 34.855C160.543 33.3083 160.196 31.655 159.823 29.895C159.449 28.135 159.063 26.3883 158.663 24.655C158.263 22.895 157.849 21.2417 157.423 19.695C157.023 18.1483 156.623 16.815 156.223 15.695C155.876 14.7617 155.489 14.0417 155.063 13.535C154.636 13.0283 154.289 12.615 154.023 12.295C154.636 12.135 155.236 12.015 155.822 11.935C156.409 11.855 156.916 11.815 157.343 11.815C159.023 11.815 160.356 12.095 161.343 12.655C162.356 13.1883 163.143 13.9883 163.703 15.055C164.289 16.1217 164.769 17.4283 165.143 18.975C165.516 20.5217 165.916 22.2817 166.343 24.255C166.929 26.9483 167.463 29.5217 167.943 31.975C168.449 34.4283 169.009 36.655 169.623 38.655C170.263 40.6283 171.036 42.255 171.943 43.535C171.036 43.855 170.116 44.1217 169.183 44.335C168.249 44.5483 167.463 44.655 166.823 44.655C165.436 44.655 164.449 44.375 163.863 43.815C163.303 43.2283 162.836 42.4283 162.463 41.415ZM151.983 31.775H162.743C162.663 32.5217 162.463 33.1883 162.143 33.775C161.849 34.335 161.423 34.7883 160.863 35.135C160.329 35.4817 159.649 35.6683 158.823 35.695L149.903 35.975L151.983 31.775ZM175.197 41.695C175.197 41.3483 175.237 40.655 175.317 39.615C175.424 38.575 175.544 37.295 175.677 35.775C175.81 34.2283 175.957 32.575 176.117 30.815C176.277 29.055 176.424 27.2817 176.557 25.495C176.69 23.6817 176.797 21.975 176.877 20.375C176.984 18.7483 177.037 17.3617 177.037 16.215C177.037 15.2017 176.984 14.375 176.877 13.735C176.797 13.095 176.677 12.575 176.517 12.175C178.25 12.5217 179.517 12.975 180.317 13.535C181.117 14.0683 181.624 14.6817 181.837 15.375C182.05 16.0683 182.157 16.855 182.157 17.735C182.157 19.895 182.024 22.1883 181.757 24.615C181.517 27.0417 181.264 29.615 180.997 32.335C180.73 35.0283 180.597 37.8817 180.597 40.895C180.597 41.375 180.61 41.895 180.637 42.455C180.664 42.9883 180.69 43.575 180.717 44.215C179.33 44.215 178.25 44.1483 177.477 44.015C176.73 43.8817 176.197 43.695 175.877 43.455C175.557 43.215 175.357 42.9483 175.277 42.655C175.224 42.3617 175.197 42.0417 175.197 41.695ZM194.037 42.215C194.09 41.8417 194.13 41.495 194.157 41.175C194.184 40.8283 194.197 40.4817 194.197 40.135C194.197 38.5083 194.277 36.735 194.437 34.815C194.597 32.8683 194.784 30.8283 194.997 28.695C195.21 26.535 195.397 24.3217 195.557 22.055C195.717 19.7883 195.797 17.5083 195.797 15.215C195.797 14.6017 195.784 14.0017 195.757 13.415C195.73 12.8017 195.704 12.3217 195.677 11.975C197.064 11.975 198.13 12.0417 198.877 12.175C199.65 12.3083 200.197 12.495 200.517 12.735C200.837 12.9483 201.024 13.2017 201.077 13.495C201.13 13.7883 201.157 14.095 201.157 14.415C201.157 14.7617 201.104 15.4817 200.997 16.575C200.917 17.6417 200.81 18.9617 200.677 20.535C200.544 22.0817 200.397 23.7617 200.237 25.575C200.104 27.3883 199.957 29.215 199.797 31.055C199.664 32.8683 199.557 34.5883 199.477 36.215C199.397 37.8417 199.357 39.2417 199.357 40.415C199.357 40.9483 199.37 41.4817 199.397 42.015C199.424 42.5217 199.477 43.0017 199.557 43.455L194.037 42.215ZM190.357 42.455C190.064 41.975 189.61 41.135 188.997 39.935C188.41 38.735 187.717 37.3083 186.917 35.655C186.144 33.975 185.317 32.2017 184.437 30.335C183.557 28.4683 182.677 26.615 181.797 24.775C180.917 22.935 180.077 21.2417 179.277 19.695C178.504 18.1483 177.81 16.8817 177.197 15.895C176.69 15.0417 176.077 14.4283 175.357 14.055C174.664 13.6817 174.13 13.3617 173.757 13.095C174.61 12.6683 175.384 12.375 176.077 12.215C176.797 12.0283 177.45 11.935 178.037 11.935C179.264 11.935 180.45 12.095 181.597 12.415C182.77 12.735 183.73 13.3883 184.477 14.375C184.93 14.9617 185.637 16.2283 186.597 18.175C187.557 20.095 188.73 22.5617 190.117 25.575C190.944 27.335 191.757 29.135 192.557 30.975C193.357 32.7883 194.17 34.5217 194.997 36.175C195.85 37.8283 196.717 39.2817 197.597 40.535C198.477 41.7617 199.41 42.6683 200.397 43.255C199.33 43.8417 198.357 44.255 197.477 44.495C196.624 44.735 195.797 44.855 194.997 44.855C194.224 44.855 193.57 44.8017 193.037 44.695C192.53 44.5883 192.077 44.3617 191.677 44.015C191.277 43.695 190.837 43.175 190.357 42.455ZM217.056 16.655C217.056 17.5083 216.963 18.6817 216.776 20.175C216.616 21.6683 216.416 23.335 216.176 25.175C215.936 27.015 215.696 28.895 215.456 30.815C215.216 32.735 215.003 34.575 214.816 36.335C214.656 38.0683 214.576 39.5883 214.576 40.895C214.576 42.895 214.749 44.3483 215.096 45.255C212.803 44.855 211.096 44.3617 209.976 43.775C208.856 43.1883 208.109 42.495 207.736 41.695C207.389 40.8683 207.216 39.9217 207.216 38.855C207.216 38.0283 207.283 36.935 207.416 35.575C207.576 34.1883 207.763 32.6417 207.976 30.935C208.189 29.2283 208.403 27.455 208.616 25.615C208.856 23.775 209.043 21.9617 209.176 20.175C209.336 18.3883 209.416 16.735 209.416 15.215C209.416 14.7083 209.403 14.175 209.376 13.615C209.349 13.055 209.309 12.495 209.256 11.935C211.149 11.9883 212.616 12.135 213.656 12.375C214.723 12.615 215.496 12.9483 215.976 13.375C216.456 13.775 216.749 14.255 216.856 14.815C216.989 15.3483 217.056 15.9617 217.056 16.655ZM236.643 15.535C236.323 16.9483 235.789 18.5883 235.043 20.455C234.323 22.295 233.483 24.2683 232.523 26.375C231.589 28.455 230.629 30.6017 229.643 32.815C228.683 35.0017 227.776 37.1617 226.923 39.295C226.096 41.4283 225.429 43.4417 224.923 45.335C223.376 44.9617 222.176 44.6017 221.323 44.255C220.496 43.9083 219.923 43.5617 219.603 43.215C219.283 42.8683 219.123 42.5483 219.123 42.255C219.123 41.9083 219.376 41.1883 219.883 40.095C220.416 39.0017 221.096 37.6417 221.923 36.015C222.776 34.3883 223.696 32.6017 224.683 30.655C225.696 28.6817 226.709 26.655 227.723 24.575C228.736 22.495 229.656 20.455 230.483 18.455C231.336 16.455 232.003 14.615 232.483 12.935L236.643 15.535ZM238.283 41.415C238.096 40.8817 237.856 40.0417 237.563 38.895C237.296 37.7483 237.003 36.4017 236.683 34.855C236.363 33.3083 236.016 31.655 235.643 29.895C235.269 28.135 234.883 26.3883 234.483 24.655C234.083 22.895 233.669 21.2417 233.243 19.695C232.843 18.1483 232.443 16.815 232.043 15.695C231.696 14.7617 231.309 14.0417 230.883 13.535C230.456 13.0283 230.109 12.615 229.843 12.295C230.456 12.135 231.056 12.015 231.643 11.935C232.229 11.855 232.736 11.815 233.163 11.815C234.843 11.815 236.176 12.095 237.163 12.655C238.176 13.1883 238.963 13.9883 239.523 15.055C240.109 16.1217 240.589 17.4283 240.963 18.975C241.336 20.5217 241.736 22.2817 242.163 24.255C242.749 26.9483 243.283 29.5217 243.763 31.975C244.269 34.4283 244.829 36.655 245.443 38.655C246.083 40.6283 246.856 42.255 247.763 43.535C246.856 43.855 245.936 44.1217 245.003 44.335C244.069 44.5483 243.283 44.655 242.643 44.655C241.256 44.655 240.269 44.375 239.683 43.815C239.123 43.2283 238.656 42.4283 238.283 41.415ZM227.803 31.775H238.563C238.483 32.5217 238.283 33.1883 237.963 33.775C237.669 34.335 237.243 34.7883 236.683 35.135C236.149 35.4817 235.469 35.6683 234.643 35.695L225.723 35.975L227.803 31.775ZM258.777 18.855C258.777 19.9483 259.097 20.935 259.737 21.815C260.404 22.6683 261.244 23.4817 262.257 24.255C263.271 25.0017 264.351 25.7617 265.497 26.535C266.644 27.3083 267.724 28.135 268.737 29.015C269.751 29.895 270.577 30.895 271.217 32.015C271.884 33.135 272.217 34.4417 272.217 35.935C272.217 37.7483 271.697 39.335 270.657 40.695C269.617 42.055 268.164 43.1217 266.297 43.895C264.431 44.6417 262.257 45.015 259.777 45.015C257.537 45.015 255.564 44.7217 253.857 44.135C252.177 43.5483 250.857 42.7483 249.897 41.735C248.937 40.695 248.457 39.495 248.457 38.135C248.457 37.015 248.737 36.015 249.297 35.135C249.884 34.2283 250.671 33.5083 251.657 32.975C252.644 32.4417 253.737 32.175 254.937 32.175C255.177 32.175 255.444 32.1883 255.737 32.215C256.057 32.2417 256.337 32.2817 256.577 32.335C255.591 33.375 255.097 34.695 255.097 36.295C255.097 37.8417 255.524 39.0817 256.377 40.015C257.231 40.9217 258.364 41.375 259.777 41.375C261.004 41.375 262.031 41.015 262.857 40.295C263.711 39.575 264.137 38.695 264.137 37.655C264.137 36.7217 263.817 35.855 263.177 35.055C262.564 34.255 261.764 33.4817 260.777 32.735C259.817 31.9883 258.777 31.2283 257.657 30.455C256.564 29.655 255.524 28.7883 254.537 27.855C253.577 26.9217 252.777 25.8817 252.137 24.735C251.524 23.5883 251.217 22.2817 251.217 20.815C251.217 19.0283 251.711 17.455 252.697 16.095C253.684 14.735 255.057 13.6817 256.817 12.935C258.577 12.1617 260.604 11.775 262.897 11.775C264.817 11.775 266.497 12.0417 267.937 12.575C269.404 13.1083 270.551 13.855 271.377 14.815C272.204 15.7483 272.617 16.8283 272.617 18.055C272.617 19.0417 272.351 19.935 271.817 20.735C271.311 21.5083 270.604 22.1217 269.697 22.575C268.791 23.0283 267.764 23.255 266.617 23.255C266.271 23.255 265.924 23.2417 265.577 23.215C265.231 23.1617 264.937 23.1083 264.697 23.055C265.124 22.6283 265.471 22.0417 265.737 21.295C266.004 20.5483 266.137 19.8017 266.137 19.055C266.137 17.8817 265.804 16.935 265.137 16.215C264.471 15.4683 263.591 15.095 262.497 15.095C261.431 15.095 260.537 15.455 259.817 16.175C259.124 16.8683 258.777 17.7617 258.777 18.855Z" fill="#AF9164"/>
    </svg>    